<?xml version="1.0" encoding="UTF-8"?>
<svg id="Layer_1" xmlns="http://www.w3.org/2000/svg" version="1.1" viewBox="0 0 1920 1080">
  <!-- Generator: Adobe Illustrator 30.3.0, SVG Export Plug-In . SVG Version: 2.1.3 Build 182)  -->
  <defs>
    <style>
      .st0 {
        fill: #1c1c1a;
      }

      .st1 {
        fill: #fff;
      }

      .st2 {
        fill: #f6f5ef;
      }
    </style>
  </defs>
  <g>
    <path class="st2" d="M405.94,468.44v143.12h194.47v-143.12h-194.47ZM577.47,587.09c-3.14,1.29-9.14,2.31-14.87,2.31-19.02,0-27.89-8.77-27.89-28.53v-13.34h-21.5v-.03c0,27.08-16.9,41.9-40.44,41.9-26.22,0-43.21-20.13-43.21-49.59s15.97-49.22,43.4-49.22c22.53,0,37.49,13.76,39.89,35h-21.51c-1.38-10.8-8.68-16.62-18.28-16.62-13.48,0-21.42,12.56-21.42,30.84s7.76,31.21,21.33,31.21,18.65-11.47,18.65-23.52h21.61v-21.85h21.5v-35.05h22.16v35.05h-22.16v21.88h21.79v11.49c0,9.33,4.16,12.1,11.17,12.1,4.34,0,7.66-.83,9.79-1.57v17.54Z"/>
    <g>
      <path class="st2" d="M689.87,509.07c4.14-2.57,8.95-3.86,14.43-3.86s10.43,1.47,14.37,4.42c3.94,2.94,6.7,6.65,8.27,11.13l17.04-8.21c-1.57-4.56-4.23-8.71-7.96-12.44-3.73-3.73-8.27-6.72-13.62-8.96-5.35-2.24-11.38-3.36-18.1-3.36s-12.92,1.18-18.6,3.55c-5.68,2.36-10.63,5.68-14.86,9.95-4.23,4.27-7.51,9.33-9.83,15.18-2.32,5.85-3.48,12.21-3.48,19.09s1.18,13.23,3.54,19.03c2.36,5.81,5.66,10.87,9.89,15.18,4.23,4.31,9.18,7.67,14.86,10.07,5.68,2.4,11.84,3.61,18.47,3.61s12.75-1.12,18.1-3.36c5.35-2.24,9.89-5.22,13.62-8.96,3.73-3.73,6.39-7.88,7.96-12.44l-17.04-8.21c-1.58,4.48-4.33,8.19-8.27,11.13-3.94,2.95-8.73,4.42-14.37,4.42s-10.28-1.28-14.43-3.86c-4.15-2.57-7.36-6.14-9.64-10.7-2.28-4.56-3.42-9.87-3.42-15.92s1.14-11.34,3.42-15.86c2.28-4.52,5.49-8.06,9.64-10.63Z"/>
      <path class="st2" d="M805.3,578.85c5.47-3.07,9.85-7.28,13.12-12.63,3.27-5.35,4.91-11.42,4.91-18.22s-1.64-12.98-4.91-18.29c-3.28-5.31-7.65-9.49-13.12-12.56-5.47-3.07-11.57-4.6-18.29-4.6s-12.83,1.54-18.35,4.6c-5.52,3.07-9.91,7.26-13.19,12.56-3.28,5.31-4.91,11.4-4.91,18.29s1.64,12.87,4.91,18.22c3.27,5.35,7.67,9.56,13.19,12.63,5.51,3.07,11.63,4.6,18.35,4.6s12.81-1.53,18.29-4.6ZM772.03,557.71c-1.45-2.82-2.18-6.05-2.18-9.7s.73-6.86,2.18-9.64c1.45-2.78,3.46-4.98,6.03-6.59,2.57-1.62,5.55-2.43,8.96-2.43s6.36.81,8.89,2.43c2.53,1.62,4.52,3.82,5.97,6.59,1.45,2.78,2.18,5.99,2.18,9.64s-.73,6.88-2.18,9.7c-1.45,2.82-3.44,5.02-5.97,6.59-2.53,1.58-5.49,2.36-8.89,2.36s-6.39-.79-8.96-2.36c-2.57-1.57-4.58-3.77-6.03-6.59Z"/>
      <rect class="st2" x="833.91" y="487.8" width="18.66" height="94.16"/>
      <path class="st2" d="M930.99,566.23c3.27-5.35,4.91-11.42,4.91-18.22s-1.64-12.98-4.91-18.29c-3.28-5.31-7.65-9.49-13.12-12.56-5.47-3.07-11.57-4.6-18.29-4.6s-12.83,1.54-18.35,4.6c-5.52,3.07-9.91,7.26-13.19,12.56-3.28,5.31-4.91,11.4-4.91,18.29s1.64,12.87,4.91,18.22c3.27,5.35,7.67,9.56,13.19,12.63,5.51,3.07,11.63,4.6,18.35,4.6s12.81-1.53,18.29-4.6c5.47-3.07,9.85-7.28,13.12-12.63ZM914.45,557.71c-1.45,2.82-3.44,5.02-5.97,6.59-2.53,1.58-5.49,2.36-8.89,2.36s-6.39-.79-8.96-2.36c-2.57-1.57-4.58-3.77-6.03-6.59-1.45-2.82-2.18-6.05-2.18-9.7s.73-6.86,2.18-9.64c1.45-2.78,3.46-4.98,6.03-6.59,2.57-1.62,5.55-2.43,8.96-2.43s6.36.81,8.89,2.43c2.53,1.62,4.52,3.82,5.97,6.59,1.45,2.78,2.18,5.99,2.18,9.64s-.73,6.88-2.18,9.7Z"/>
      <path class="st2" d="M1232.13,524.31c-2.45-3.69-5.87-6.57-10.26-8.65-4.4-2.07-9.45-3.11-15.18-3.11-4.81,0-9.25.75-13.31,2.24-4.06,1.49-7.55,3.61-10.45,6.34-2.9,2.74-5.02,6.01-6.34,9.83l14.93,7.09c1.16-2.99,3-5.39,5.54-7.22,2.53-1.82,5.45-2.74,8.77-2.74,3.48,0,6.24.87,8.27,2.61,2.03,1.74,3.05,3.9,3.05,6.47v1.81l-18.78,3.04c-5.39.83-9.89,2.24-13.5,4.23-3.61,1.99-6.28,4.46-8.02,7.4-1.74,2.95-2.61,6.32-2.61,10.14,0,4.06.95,7.57,2.86,10.51,1.91,2.94,4.64,5.21,8.21,6.78,3.56,1.57,7.79,2.36,12.69,2.36.06,0,.12,0,.18,0,6.35-.04,12.08-3.84,14.81-9.58l2.75-5.79h2.67v13.88h17.41v-44.78c0-4.89-1.22-9.18-3.67-12.87ZM1217.14,554.84c0,2.74-.64,5.25-1.93,7.53-1.29,2.28-3.09,4.08-5.41,5.41-2.32,1.33-5.02,1.99-8.08,1.99-2.32,0-4.27-.58-5.85-1.74-1.58-1.16-2.36-2.78-2.36-4.85,0-2.24.7-3.96,2.12-5.16,1.41-1.2,3.44-2.05,6.09-2.55l15.42-2.75v2.13Z"/>
      <polygon class="st2" points="1145.5 519.11 1145 518.87 1145 519.11 1145 534.12 1145 535.62 1145 537.53 1145 537.77 1145 581.96 1163.66 581.96 1163.66 537.77 1163.66 535.62 1163.66 534.12 1163.66 527.74 1163.66 519.11 1145.5 519.11"/>
      <path class="st2" d="M1129.83,530.06c-3.07-5.35-7.21-9.59-12.43-12.74-5.22-3.15-11.06-4.72-17.53-4.72-4.97,0-9.39.93-13.24,2.8-2.42,1.17-4.49,2.69-6.28,4.47v-32h-18.65v94.11h17.41v-6.49c2.13,2.29,4.71,4.11,7.77,5.43,3.94,1.7,8.23,2.55,12.87,2.55,6.63,0,12.56-1.57,17.78-4.72,5.22-3.15,9.34-7.42,12.37-12.8,3.02-5.39,4.54-11.35,4.54-17.9s-1.53-12.62-4.6-17.97ZM1112.92,557.72c-1.49,2.82-3.56,5.02-6.21,6.59-2.66,1.58-5.72,2.36-9.2,2.36s-6.28-.79-8.89-2.36c-2.61-1.57-4.64-3.77-6.09-6.59-1.45-2.82-2.17-6.05-2.17-9.7s.72-6.88,2.17-9.7c1.45-2.82,3.48-5.01,6.09-6.59,2.61-1.57,5.57-2.36,8.89-2.36,3.48,0,6.55.81,9.2,2.42,2.65,1.62,4.72,3.81,6.21,6.59,1.49,2.78,2.24,5.99,2.24,9.64s-.75,6.88-2.24,9.7Z"/>
      <path class="st2" d="M1037.59,515.79c-3.78-2.16-8.11-3.23-13-3.23-5.56,0-10.41,1.33-14.55,3.98-2.48,1.59-4.62,3.71-6.42,6.34-1.41-2.34-3.34-4.35-5.84-6.03-4.27-2.86-9.23-4.29-14.86-4.29-5.31,0-9.87,1.24-13.68,3.73-2.3,1.5-4.07,3.5-5.35,5.99v-8.23h-17.42v67.92h18.66v-39.68c0-2.65.48-4.93,1.43-6.84.95-1.91,2.32-3.4,4.11-4.48,1.78-1.08,3.87-1.62,6.28-1.62s4.6.54,6.34,1.62c1.74,1.08,3.09,2.57,4.04,4.48.95,1.91,1.43,4.19,1.43,6.84v39.68h18.66v-39.68c0-2.65.48-4.93,1.43-6.84.95-1.91,2.32-3.4,4.11-4.48,1.78-1.08,3.88-1.62,6.28-1.62s4.6.54,6.34,1.62c1.74,1.08,3.09,2.57,4.04,4.48.95,1.91,1.43,4.19,1.43,6.84v39.68h18.66v-43.66c0-5.14-1.08-9.64-3.23-13.5-2.16-3.86-5.12-6.86-8.89-9.02Z"/>
    </g>
    <path class="st2" d="M1356.89,523.22c-2.86-3.07-6.37-5.45-10.51-7.15-4.15-1.7-8.92-2.55-14.3-2.55-6.47,0-12.27,1.54-17.42,4.6-5.14,3.07-9.23,7.26-12.25,12.56-3.03,5.31-4.54,11.36-4.54,18.16s1.45,12.52,4.35,17.91c2.9,5.39,7.01,9.68,12.31,12.87,5.31,3.19,11.57,4.79,18.78,4.79,4.64,0,8.91-.68,12.81-2.05,3.9-1.37,7.28-3.3,10.14-5.78,2.86-2.49,4.95-5.39,6.28-8.71l-14.93-7.09c-1.33,2.32-3.17,4.15-5.54,5.47-2.36,1.33-5.2,1.99-8.52,1.99-3.65,0-6.76-.81-9.33-2.43-2.57-1.62-4.48-3.87-5.72-6.78-.64-1.49-1.06-3.11-1.29-4.85h47.56c.33-.91.56-2.01.68-3.3.12-1.28.19-2.59.19-3.92,0-4.73-.74-9.1-2.24-13.12-1.49-4.02-3.67-7.57-6.53-10.63ZM1317.73,540.51c.21-.96.47-1.88.79-2.74,1.16-3.07,2.9-5.39,5.22-6.97,2.32-1.57,5.1-2.36,8.33-2.36s6.11.81,8.4,2.42c2.28,1.62,3.87,3.82,4.79,6.59.32.97.52,1.99.63,3.05h-28.17Z"/>
    <path class="st2" d="M1400.93,532.67c2.53-1.57,5.41-2.36,8.65-2.36,3.65,0,6.86,1,9.64,2.99,2.78,1.99,4.74,4.69,5.91,8.09l16.17-6.97c-1.33-4.23-3.52-7.9-6.59-11.01-3.07-3.11-6.76-5.54-11.07-7.28-4.31-1.74-9-2.61-14.06-2.61-6.8,0-12.94,1.54-18.41,4.6-5.47,3.07-9.79,7.28-12.94,12.63-3.15,5.35-4.73,11.38-4.73,18.1s1.59,12.77,4.79,18.16c3.19,5.39,7.5,9.64,12.94,12.75,5.43,3.11,11.55,4.66,18.35,4.66,5.14,0,9.87-.89,14.18-2.67,4.31-1.78,8-4.25,11.07-7.4,3.07-3.15,5.23-6.72,6.47-10.7l-16.17-7.09c-1.16,3.4-3.11,6.09-5.85,8.08-2.74,1.99-5.97,2.99-9.7,2.99-3.24,0-6.12-.79-8.65-2.36-2.53-1.57-4.52-3.77-5.97-6.59-1.45-2.82-2.18-6.05-2.18-9.7s.73-6.88,2.18-9.7c1.45-2.82,3.44-5.02,5.97-6.59Z"/>
    <polygon class="st2" points="1163.44 495.15 1163.44 493.51 1145.21 493.51 1145.21 512.06 1163.44 512.06 1163.44 510.42 1163.44 495.15"/>
    <g>
      <rect class="st2" x="1451.86" y="564.26" width="18.66" height="18.66"/>
      <path class="st2" d="M1510.82,525.77c-2.16-3.86-5.16-6.86-9.02-9.02-3.86-2.16-8.36-3.23-13.5-3.23-4.73,0-8.91.88-12.38,2.92-1.86,1.1-3.73,2.67-5.42,4.4v-9.31h0v-22.76h-18.66v56.84h18.66v-2.36c0-2.65.52-4.93,1.55-6.84,1.04-1.91,2.51-3.4,4.42-4.48,1.91-1.08,4.06-1.62,6.47-1.62s4.67.54,6.53,1.62c1.87,1.08,3.31,2.57,4.35,4.48,1.04,1.91,1.55,4.19,1.55,6.84v39.68h18.66v-43.66c0-5.14-1.08-9.64-3.23-13.5Z"/>
    </g>
    <g>
      <polygon class="st2" points="1259.7 513.75 1259.7 512.11 1241.47 512.11 1241.47 530.66 1259.7 530.66 1259.7 529.02 1259.7 513.75"/>
      <polygon class="st2" points="1278.48 512.11 1278.48 498.01 1278.48 493.56 1259.7 493.56 1259.7 512.11 1260.25 512.11 1278.48 512.11"/>
      <path class="st2" d="M1287.64,567.56c-5.95,0-9.47-2.35-9.47-10.25v-26.64h-18.48v28.21c0,16.75,7.52,24.19,23.64,24.19,4.85,0,9.94-.86,12.6-1.96v-14.87c-1.8.63-4.62,1.33-8.3,1.33Z"/>
    </g>
  </g>
  <g>
    <path class="st0" d="M2414.29,468.44v143.12h194.47v-143.12h-194.47ZM2585.82,587.09c-3.14,1.29-9.14,2.31-14.87,2.31-19.02,0-27.89-8.77-27.89-28.53v-13.34h-21.5v-.03c0,27.08-16.9,41.9-40.44,41.9-26.22,0-43.21-20.13-43.21-49.59s15.97-49.22,43.4-49.22c22.53,0,37.49,13.76,39.89,35h-21.51c-1.39-10.8-8.68-16.62-18.28-16.62-13.48,0-21.42,12.56-21.42,30.84s7.76,31.21,21.33,31.21,18.65-11.47,18.65-23.52h21.61v-21.85h21.5v-35.05h22.16v35.05h-22.16v21.88h21.79v11.49c0,9.33,4.16,12.1,11.17,12.1,4.34,0,7.66-.83,9.79-1.57v17.54Z"/>
    <g>
      <g>
        <path class="st0" d="M2698.22,509.07c4.14-2.57,8.95-3.86,14.43-3.86s10.43,1.47,14.37,4.42c3.94,2.94,6.7,6.65,8.27,11.13l17.04-8.21c-1.57-4.56-4.23-8.71-7.96-12.44-3.73-3.73-8.27-6.72-13.62-8.96-5.35-2.24-11.38-3.36-18.1-3.36s-12.92,1.18-18.6,3.55c-5.68,2.36-10.63,5.68-14.86,9.95-4.23,4.27-7.51,9.33-9.83,15.18-2.32,5.85-3.48,12.21-3.48,19.09s1.18,13.23,3.54,19.03c2.36,5.81,5.66,10.87,9.89,15.18,4.23,4.31,9.18,7.67,14.86,10.07,5.68,2.4,11.84,3.61,18.47,3.61s12.75-1.12,18.1-3.36c5.35-2.24,9.89-5.22,13.62-8.96,3.73-3.73,6.39-7.88,7.96-12.44l-17.04-8.21c-1.58,4.48-4.33,8.19-8.27,11.13-3.94,2.95-8.73,4.42-14.37,4.42s-10.28-1.28-14.43-3.86c-4.15-2.57-7.36-6.14-9.64-10.7-2.28-4.56-3.42-9.87-3.42-15.92s1.14-11.34,3.42-15.86c2.28-4.52,5.49-8.06,9.64-10.63Z"/>
        <path class="st0" d="M2813.65,578.85c5.47-3.07,9.85-7.28,13.12-12.63,3.27-5.35,4.91-11.42,4.91-18.22s-1.64-12.98-4.91-18.29c-3.28-5.31-7.65-9.49-13.12-12.56-5.47-3.07-11.57-4.6-18.29-4.6s-12.83,1.54-18.35,4.6c-5.52,3.07-9.91,7.26-13.19,12.56-3.28,5.31-4.91,11.4-4.91,18.29s1.64,12.87,4.91,18.22c3.27,5.35,7.67,9.56,13.19,12.63,5.51,3.07,11.63,4.6,18.35,4.6s12.81-1.53,18.29-4.6ZM2780.38,557.71c-1.45-2.82-2.18-6.05-2.18-9.7s.73-6.86,2.18-9.64c1.45-2.78,3.46-4.98,6.03-6.59,2.57-1.62,5.55-2.43,8.96-2.43s6.36.81,8.89,2.43c2.53,1.62,4.52,3.82,5.97,6.59,1.45,2.78,2.18,5.99,2.18,9.64s-.73,6.88-2.18,9.7c-1.45,2.82-3.44,5.02-5.97,6.59-2.53,1.58-5.49,2.36-8.89,2.36s-6.39-.79-8.96-2.36c-2.57-1.57-4.58-3.77-6.03-6.59Z"/>
        <rect class="st0" x="2842.25" y="487.8" width="18.66" height="94.16"/>
        <path class="st0" d="M2939.34,566.23c3.27-5.35,4.91-11.42,4.91-18.22s-1.64-12.98-4.91-18.29c-3.28-5.31-7.65-9.49-13.12-12.56-5.47-3.07-11.57-4.6-18.29-4.6s-12.83,1.54-18.35,4.6c-5.52,3.07-9.91,7.26-13.19,12.56-3.28,5.31-4.91,11.4-4.91,18.29s1.64,12.87,4.91,18.22c3.27,5.35,7.67,9.56,13.19,12.63,5.51,3.07,11.63,4.6,18.35,4.6s12.81-1.53,18.29-4.6c5.47-3.07,9.85-7.28,13.12-12.63ZM2922.8,557.71c-1.45,2.82-3.44,5.02-5.97,6.59-2.53,1.58-5.49,2.36-8.89,2.36s-6.39-.79-8.96-2.36c-2.57-1.57-4.58-3.77-6.03-6.59-1.45-2.82-2.18-6.05-2.18-9.7s.73-6.86,2.18-9.64c1.45-2.78,3.46-4.98,6.03-6.59,2.57-1.62,5.55-2.43,8.96-2.43s6.36.81,8.89,2.43c2.53,1.62,4.52,3.82,5.97,6.59,1.45,2.78,2.18,5.99,2.18,9.64s-.73,6.88-2.18,9.7Z"/>
        <path class="st0" d="M3240.48,524.31c-2.45-3.69-5.87-6.57-10.26-8.65-4.4-2.07-9.45-3.11-15.18-3.11-4.81,0-9.25.75-13.31,2.24-4.06,1.49-7.55,3.61-10.45,6.34-2.9,2.74-5.02,6.01-6.34,9.83l14.93,7.09c1.16-2.99,3-5.39,5.54-7.22,2.53-1.82,5.45-2.74,8.77-2.74,3.48,0,6.24.87,8.27,2.61,2.03,1.74,3.05,3.9,3.05,6.47v1.81l-18.78,3.04c-5.39.83-9.89,2.24-13.5,4.23-3.61,1.99-6.28,4.46-8.02,7.4-1.74,2.95-2.61,6.32-2.61,10.14,0,4.06.95,7.57,2.86,10.51,1.91,2.94,4.64,5.21,8.21,6.78,3.56,1.57,7.79,2.36,12.69,2.36.06,0,.12,0,.18,0,6.35-.04,12.08-3.84,14.81-9.58l2.75-5.79h2.67v13.88h17.41v-44.78c0-4.89-1.22-9.18-3.67-12.87ZM3225.49,554.84c0,2.74-.64,5.25-1.93,7.53-1.29,2.28-3.09,4.08-5.41,5.41-2.32,1.33-5.02,1.99-8.08,1.99-2.32,0-4.27-.58-5.85-1.74-1.58-1.16-2.36-2.78-2.36-4.85,0-2.24.7-3.96,2.12-5.16,1.41-1.2,3.44-2.05,6.09-2.55l15.42-2.75v2.13Z"/>
        <polygon class="st0" points="3153.85 519.11 3153.35 518.87 3153.35 519.11 3153.35 534.12 3153.35 535.62 3153.35 537.53 3153.35 537.77 3153.35 581.96 3172.01 581.96 3172.01 537.77 3172.01 535.62 3172.01 534.12 3172.01 527.74 3172.01 519.11 3153.85 519.11"/>
        <path class="st0" d="M3138.17,530.06c-3.07-5.35-7.21-9.59-12.43-12.74-5.22-3.15-11.06-4.72-17.53-4.72-4.97,0-9.39.93-13.24,2.8-2.42,1.17-4.49,2.69-6.28,4.47v-32h-18.65v94.11h17.41v-6.49c2.13,2.29,4.71,4.11,7.77,5.43,3.94,1.7,8.23,2.55,12.87,2.55,6.63,0,12.56-1.57,17.78-4.72,5.22-3.15,9.34-7.42,12.37-12.8,3.02-5.39,4.54-11.35,4.54-17.9s-1.53-12.62-4.6-17.97ZM3121.27,557.72c-1.49,2.82-3.56,5.02-6.21,6.59-2.66,1.58-5.72,2.36-9.2,2.36s-6.28-.79-8.89-2.36c-2.61-1.57-4.64-3.77-6.09-6.59-1.45-2.82-2.17-6.05-2.17-9.7s.72-6.88,2.17-9.7c1.45-2.82,3.48-5.01,6.09-6.59,2.61-1.57,5.57-2.36,8.89-2.36,3.48,0,6.55.81,9.2,2.42,2.65,1.62,4.72,3.81,6.21,6.59,1.49,2.78,2.24,5.99,2.24,9.64s-.75,6.88-2.24,9.7Z"/>
        <path class="st0" d="M3045.94,515.79c-3.78-2.16-8.11-3.23-13-3.23-5.56,0-10.41,1.33-14.55,3.98-2.48,1.59-4.62,3.71-6.42,6.34-1.41-2.34-3.34-4.35-5.84-6.03-4.27-2.86-9.23-4.29-14.86-4.29-5.31,0-9.87,1.24-13.68,3.73-2.3,1.5-4.07,3.5-5.35,5.99v-8.23h-17.42v67.92h18.66v-39.68c0-2.65.48-4.93,1.43-6.84.95-1.91,2.32-3.4,4.11-4.48,1.78-1.08,3.87-1.62,6.28-1.62s4.6.54,6.34,1.62c1.74,1.08,3.09,2.57,4.04,4.48.95,1.91,1.43,4.19,1.43,6.84v39.68h18.66v-39.68c0-2.65.48-4.93,1.43-6.84.95-1.91,2.32-3.4,4.11-4.48,1.78-1.08,3.88-1.62,6.28-1.62s4.6.54,6.34,1.62c1.74,1.08,3.09,2.57,4.04,4.48.95,1.91,1.43,4.19,1.43,6.84v39.68h18.66v-43.66c0-5.14-1.08-9.64-3.23-13.5-2.16-3.86-5.12-6.86-8.89-9.02Z"/>
      </g>
      <path class="st0" d="M3365.24,523.22c-2.86-3.07-6.37-5.45-10.51-7.15-4.15-1.7-8.92-2.55-14.3-2.55-6.47,0-12.27,1.54-17.42,4.6-5.14,3.07-9.23,7.26-12.25,12.56-3.03,5.31-4.54,11.36-4.54,18.16s1.45,12.52,4.35,17.91c2.9,5.39,7.01,9.68,12.31,12.87,5.31,3.19,11.57,4.79,18.78,4.79,4.64,0,8.91-.68,12.81-2.05,3.9-1.37,7.28-3.3,10.14-5.78,2.86-2.49,4.95-5.39,6.28-8.71l-14.93-7.09c-1.33,2.32-3.17,4.15-5.54,5.47-2.36,1.33-5.2,1.99-8.52,1.99-3.65,0-6.76-.81-9.33-2.43-2.57-1.62-4.48-3.87-5.72-6.78-.64-1.49-1.06-3.11-1.29-4.85h47.56c.33-.91.56-2.01.68-3.3.12-1.28.19-2.59.19-3.92,0-4.73-.74-9.1-2.24-13.12-1.49-4.02-3.67-7.57-6.53-10.63ZM3326.07,540.51c.21-.96.47-1.88.79-2.74,1.16-3.07,2.9-5.39,5.22-6.97,2.32-1.57,5.1-2.36,8.33-2.36s6.11.81,8.4,2.42c2.28,1.62,3.87,3.82,4.79,6.59.32.97.52,1.99.63,3.05h-28.17Z"/>
      <path class="st0" d="M3409.27,532.67c2.53-1.57,5.41-2.36,8.65-2.36,3.65,0,6.86,1,9.64,2.99,2.78,1.99,4.74,4.69,5.91,8.09l16.17-6.97c-1.33-4.23-3.52-7.9-6.59-11.01-3.07-3.11-6.76-5.54-11.07-7.28-4.31-1.74-9-2.61-14.06-2.61-6.8,0-12.94,1.54-18.41,4.6-5.47,3.07-9.79,7.28-12.94,12.63-3.15,5.35-4.73,11.38-4.73,18.1s1.59,12.77,4.79,18.16c3.19,5.39,7.5,9.64,12.94,12.75,5.43,3.11,11.55,4.66,18.35,4.66,5.14,0,9.87-.89,14.18-2.67,4.31-1.78,8-4.25,11.07-7.4,3.07-3.15,5.23-6.72,6.47-10.7l-16.17-7.09c-1.16,3.4-3.11,6.09-5.85,8.08-2.74,1.99-5.97,2.99-9.7,2.99-3.24,0-6.12-.79-8.65-2.36-2.53-1.57-4.52-3.77-5.97-6.59-1.45-2.82-2.18-6.05-2.18-9.7s.73-6.88,2.18-9.7c1.45-2.82,3.44-5.02,5.97-6.59Z"/>
      <polygon class="st0" points="3171.79 495.15 3171.79 493.51 3153.56 493.51 3153.56 512.06 3171.79 512.06 3171.79 510.42 3171.79 495.15"/>
      <g>
        <rect class="st0" x="3460.21" y="564.26" width="18.66" height="18.66"/>
        <path class="st0" d="M3519.17,525.77c-2.16-3.86-5.16-6.86-9.02-9.02-3.86-2.16-8.36-3.23-13.5-3.23-4.73,0-8.91.88-12.38,2.92-1.86,1.1-3.73,2.67-5.42,4.4v-9.31h0v-22.76h-18.66v56.84h18.66v-2.36c0-2.65.52-4.93,1.55-6.84,1.04-1.91,2.51-3.4,4.42-4.48,1.91-1.08,4.06-1.62,6.47-1.62s4.67.54,6.53,1.62c1.87,1.08,3.31,2.57,4.35,4.48,1.04,1.91,1.55,4.19,1.55,6.84v39.68h18.66v-43.66c0-5.14-1.08-9.64-3.23-13.5Z"/>
      </g>
      <g>
        <polygon class="st0" points="3268.04 513.75 3268.04 512.11 3249.81 512.11 3249.81 530.66 3268.04 530.66 3268.04 529.02 3268.04 513.75"/>
        <polygon class="st0" points="3286.83 512.11 3286.83 498.01 3286.83 493.56 3268.04 493.56 3268.04 512.11 3268.6 512.11 3286.83 512.11"/>
        <path class="st0" d="M3295.99,567.56c-5.95,0-9.47-2.35-9.47-10.25v-26.64h-18.48v28.21c0,16.75,7.52,24.19,23.64,24.19,4.85,0,9.94-.86,12.6-1.96v-14.87c-1.8.63-4.62,1.33-8.3,1.33Z"/>
      </g>
    </g>
  </g>
  <g>
    <path class="st1" d="M-407.54,1832.82v342.06H57.24v-342.06h-464.79ZM2.41,2116.39c-7.5,3.09-21.85,5.52-35.53,5.52-45.46,0-66.65-20.97-66.65-68.19v-31.88h-51.39v-.07c0,64.73-40.39,100.14-96.66,100.14-62.67,0-103.28-48.11-103.28-118.51s38.18-117.62,103.72-117.62c53.85,0,89.6,32.88,95.34,83.64h-51.42c-3.31-25.82-20.75-39.72-43.69-39.72-32.22,0-51.2,30.01-51.2,73.71s18.54,74.59,50.98,74.59,44.58-27.41,44.58-56.22h51.64v-52.23h51.39v-83.76h52.96v83.76h-52.96v52.3h52.08v27.46c0,22.29,9.93,28.91,26.7,28.91,10.37,0,18.32-1.99,23.39-3.75v41.93Z"/>
    <g>
      <path class="st1" d="M271.03,1929.92c9.9-6.14,21.4-9.22,34.48-9.22s24.92,3.52,34.34,10.55c9.41,7.04,16,15.9,19.77,26.61l40.73-19.62c-3.76-10.9-10.1-20.81-19.02-29.73-8.92-8.92-19.77-16.05-32.55-21.4-12.78-5.35-27.21-8.03-43.26-8.03s-30.87,2.82-44.44,8.47c-13.58,5.65-25.42,13.58-35.52,23.78-10.11,10.21-17.94,22.3-23.48,36.27-5.55,13.97-8.32,29.18-8.32,45.63s2.82,31.61,8.47,45.48c5.65,13.88,13.53,25.97,23.64,36.27,10.11,10.31,21.95,18.33,35.52,24.08,13.57,5.75,28.29,8.62,44.15,8.62s30.47-2.68,43.26-8.03c12.78-5.35,23.63-12.49,32.55-21.4,8.92-8.92,15.26-18.83,19.02-29.73l-40.73-19.62c-3.76,10.7-10.36,19.58-19.77,26.61-9.42,7.04-20.86,10.55-34.34,10.55s-24.58-3.07-34.48-9.22c-9.91-6.14-17.59-14.66-23.04-25.57-5.45-10.9-8.17-23.58-8.17-38.05s2.72-27.1,8.17-37.9c5.45-10.8,13.13-19.27,23.04-25.42Z"/>
      <path class="st1" d="M546.91,2096.7c13.08-7.33,23.53-17.39,31.36-30.17,7.83-12.78,11.74-27.3,11.74-43.55s-3.92-31.01-11.74-43.7c-7.83-12.68-18.28-22.69-31.36-30.02-13.08-7.33-27.65-11-43.7-11s-30.67,3.67-43.85,11c-13.19,7.33-23.69,17.35-31.51,30.02-7.83,12.69-11.74,27.25-11.74,43.7s3.91,30.77,11.74,43.55c7.83,12.78,18.33,22.84,31.51,30.17,13.18,7.33,27.79,11,43.85,11s30.62-3.66,43.7-11ZM467.38,2046.16c-3.47-6.74-5.2-14.46-5.2-23.19s1.73-16.4,5.2-23.04c3.47-6.64,8.27-11.89,14.42-15.76,6.14-3.86,13.28-5.8,21.41-5.8s15.21,1.93,21.25,5.8c6.05,3.87,10.8,9.12,14.27,15.76,3.47,6.64,5.2,14.32,5.2,23.04s-1.74,16.45-5.2,23.19c-3.47,6.74-8.22,11.99-14.27,15.75-6.05,3.77-13.13,5.65-21.25,5.65s-15.26-1.88-21.41-5.65c-6.15-3.76-10.95-9.01-14.42-15.75Z"/>
      <rect class="st1" x="615.27" y="1879.09" width="44.6" height="225.04"/>
      <path class="st1" d="M847.3,2066.52c7.83-12.78,11.74-27.3,11.74-43.55s-3.92-31.01-11.74-43.7c-7.83-12.68-18.29-22.69-31.36-30.02-13.08-7.33-27.65-11-43.7-11s-30.67,3.67-43.85,11c-13.19,7.33-23.69,17.35-31.51,30.02-7.83,12.69-11.74,27.25-11.74,43.7s3.91,30.77,11.74,43.55c7.83,12.78,18.33,22.84,31.51,30.17,13.18,7.33,27.79,11,43.85,11s30.62-3.66,43.7-11c13.08-7.33,23.53-17.39,31.36-30.17ZM807.76,2046.16c-3.47,6.74-8.22,11.99-14.27,15.75-6.05,3.77-13.13,5.65-21.25,5.65s-15.26-1.88-21.41-5.65c-6.15-3.76-10.95-9.01-14.42-15.75-3.47-6.74-5.2-14.46-5.2-23.19s1.73-16.4,5.2-23.04c3.47-6.64,8.27-11.89,14.42-15.76,6.14-3.86,13.28-5.8,21.41-5.8s15.21,1.93,21.25,5.8c6.05,3.87,10.8,9.12,14.27,15.76,3.47,6.64,5.2,14.32,5.2,23.04s-1.74,16.45-5.2,23.19Z"/>
      <path class="st1" d="M1567.01,1966.34c-5.85-8.82-14.02-15.71-24.53-20.66-10.51-4.95-22.59-7.43-36.27-7.43-11.5,0-22.1,1.78-31.81,5.35-9.71,3.57-18.03,8.62-24.97,15.16-6.94,6.54-11.99,14.37-15.16,23.49l35.68,16.95c2.77-7.13,7.18-12.88,13.23-17.24,6.04-4.36,13.03-6.54,20.96-6.54,8.32,0,14.91,2.08,19.77,6.24,4.85,4.16,7.28,9.32,7.28,15.46v4.34l-44.89,7.26c-12.89,1.98-23.64,5.35-32.26,10.11-8.62,4.76-15.01,10.66-19.17,17.69-4.16,7.04-6.25,15.12-6.25,24.23,0,9.71,2.28,18.09,6.84,25.12,4.56,7.04,11.1,12.44,19.62,16.2,8.52,3.76,18.63,5.65,30.32,5.65.14,0,.28,0,.42,0,15.19-.09,28.88-9.18,35.4-22.9l6.57-13.83h6.39v33.16h41.6v-107.02c0-11.69-2.93-21.95-8.77-30.77ZM1531.19,2039.32c0,6.54-1.54,12.54-4.61,17.99-3.08,5.45-7.39,9.76-12.94,12.93-5.55,3.17-11.99,4.76-19.32,4.76-5.55,0-10.21-1.39-13.97-4.16-3.77-2.77-5.65-6.64-5.65-11.6,0-5.35,1.68-9.46,5.06-12.34,3.37-2.87,8.22-4.91,14.56-6.1l36.86-6.58v5.1Z"/>
      <polygon class="st1" points="1359.97 1953.92 1358.77 1953.35 1358.77 1953.92 1358.77 1989.8 1358.77 1993.37 1358.77 1997.93 1358.77 1998.52 1358.77 2104.13 1403.36 2104.13 1403.36 1998.52 1403.36 1993.37 1403.36 1989.8 1403.36 1974.53 1403.36 1953.92 1359.97 1953.92"/>
      <path class="st1" d="M1322.51,1980.08c-7.33-12.78-17.23-22.93-29.71-30.45-12.48-7.53-26.44-11.29-41.9-11.29-11.88,0-22.43,2.23-31.64,6.68-5.79,2.81-10.73,6.42-15,10.68v-76.49h-44.57v224.93h41.6v-15.51c5.09,5.48,11.26,9.83,18.57,12.98,9.41,4.06,19.66,6.09,30.75,6.09,15.85,0,30.01-3.76,42.49-11.29,12.48-7.53,22.33-17.72,29.57-30.6,7.23-12.87,10.84-27.14,10.84-42.79s-3.67-30.16-10.99-42.94ZM1282.1,2046.19c-3.56,6.74-8.52,11.99-14.85,15.75-6.35,3.77-13.67,5.65-21.99,5.65s-15.01-1.88-21.24-5.65c-6.24-3.76-11.1-9.01-14.56-15.75-3.47-6.73-5.2-14.46-5.2-23.18s1.73-16.44,5.2-23.18c3.46-6.73,8.32-11.98,14.56-15.75,6.24-3.76,13.32-5.65,21.24-5.65,8.32,0,15.65,1.93,21.99,5.79,6.34,3.86,11.29,9.11,14.85,15.75,3.56,6.64,5.35,14.31,5.35,23.03s-1.78,16.44-5.35,23.18Z"/>
      <path class="st1" d="M1102.07,1945.98c-9.02-5.15-19.37-7.73-31.07-7.73-13.28,0-24.87,3.17-34.78,9.51-5.94,3.8-11.03,8.87-15.33,15.15-3.36-5.59-7.98-10.41-13.95-14.41-10.21-6.84-22.05-10.26-35.52-10.26-12.68,0-23.59,2.97-32.7,8.92-5.49,3.58-9.74,8.37-12.78,14.32v-19.67h-41.62v162.31h44.6v-94.83c0-6.34,1.14-11.79,3.42-16.35,2.27-4.56,5.54-8.12,9.81-10.7,4.26-2.57,9.26-3.87,15.01-3.87s11,1.29,15.16,3.87c4.16,2.58,7.38,6.15,9.66,10.7,2.28,4.56,3.42,10.01,3.42,16.35v94.83h44.59v-94.83c0-6.34,1.14-11.79,3.42-16.35,2.28-4.56,5.55-8.12,9.81-10.7,4.26-2.57,9.26-3.87,15.01-3.87s11,1.29,15.16,3.87c4.17,2.58,7.38,6.15,9.66,10.7,2.28,4.56,3.42,10.01,3.42,16.35v94.83h44.59v-104.35c0-12.29-2.58-23.04-7.73-32.26-5.15-9.22-12.24-16.4-21.25-21.55Z"/>
    </g>
    <path class="st1" d="M1865.19,1963.73c-6.84-7.33-15.21-13.03-25.12-17.09-9.91-4.06-21.31-6.09-34.18-6.09-15.46,0-29.34,3.67-41.62,11-12.29,7.33-22.05,17.35-29.28,30.03-7.24,12.69-10.85,27.16-10.85,43.4s3.47,29.93,10.41,42.81c6.93,12.89,16.74,23.14,29.43,30.77,12.68,7.63,27.65,11.45,44.89,11.45,11.09,0,21.3-1.64,30.62-4.91,9.31-3.27,17.39-7.88,24.23-13.82,6.84-5.95,11.84-12.88,15.01-20.81l-35.68-16.94c-3.17,5.55-7.58,9.91-13.23,13.08-5.65,3.17-12.44,4.76-20.36,4.76-8.72,0-16.15-1.93-22.3-5.8-6.15-3.86-10.7-9.26-13.67-16.2-1.53-3.57-2.54-7.44-3.08-11.59h113.67c.79-2.18,1.34-4.8,1.63-7.88.3-3.07.44-6.19.44-9.36,0-11.3-1.78-21.75-5.35-31.36-3.56-9.61-8.77-18.08-15.61-25.42ZM1771.58,2005.06c.51-2.29,1.12-4.49,1.9-6.54,2.77-7.33,6.94-12.88,12.49-16.65,5.54-3.76,12.19-5.65,19.92-5.65s14.61,1.93,20.07,5.79c5.45,3.87,9.26,9.12,11.44,15.76.76,2.31,1.25,4.74,1.5,7.28h-67.32Z"/>
    <path class="st1" d="M1970.42,1986.33c6.04-3.76,12.93-5.65,20.66-5.65,8.72,0,16.4,2.38,23.04,7.14,6.64,4.76,11.34,11.2,14.12,19.32l38.64-16.65c-3.17-10.11-8.42-18.88-15.75-26.31-7.33-7.43-16.15-13.23-26.46-17.39-10.31-4.16-21.51-6.24-33.59-6.24-16.25,0-30.92,3.67-44,11-13.08,7.33-23.39,17.39-30.92,30.17-7.53,12.78-11.3,27.2-11.3,43.25s3.81,30.52,11.44,43.4c7.63,12.89,17.94,23.04,30.92,30.47,12.98,7.43,27.6,11.15,43.85,11.15,12.28,0,23.58-2.13,33.89-6.39,10.3-4.26,19.12-10.15,26.46-17.69,7.33-7.53,12.49-16.05,15.46-25.57l-38.64-16.95c-2.78,8.13-7.43,14.57-13.97,19.32-6.54,4.76-14.27,7.13-23.19,7.13-7.73,0-14.62-1.88-20.66-5.65-6.05-3.76-10.8-9.01-14.27-15.75-3.47-6.74-5.2-14.46-5.2-23.19s1.73-16.45,5.2-23.19c3.47-6.74,8.22-11.99,14.27-15.76Z"/>
    <polygon class="st1" points="1402.85 1896.66 1402.85 1892.73 1359.28 1892.73 1359.28 1937.08 1402.85 1937.08 1402.85 1933.15 1402.85 1896.66"/>
    <g>
      <rect class="st1" x="2092.16" y="2061.83" width="44.59" height="44.6"/>
      <path class="st1" d="M2233.07,1969.83c-5.16-9.22-12.34-16.4-21.55-21.55-9.22-5.15-19.97-7.73-32.26-7.73-11.3,0-21.29,2.1-29.58,6.99-4.44,2.62-8.91,6.39-12.94,10.51v-22.26h.01v-54.39h-44.59v135.85h44.59v-5.64c0-6.34,1.23-11.79,3.71-16.35,2.47-4.56,5.99-8.12,10.55-10.7,4.56-2.57,9.71-3.87,15.46-3.87s11.15,1.29,15.61,3.87c4.46,2.58,7.92,6.15,10.4,10.7,2.48,4.56,3.72,10.01,3.72,16.35v94.83h44.59v-104.35c0-12.29-2.57-23.04-7.72-32.26Z"/>
    </g>
    <g>
      <polygon class="st1" points="1632.89 1941.11 1632.89 1937.19 1589.32 1937.19 1589.32 1981.53 1632.89 1981.53 1632.89 1977.6 1632.89 1941.11"/>
      <polygon class="st1" points="1677.79 1937.19 1677.79 1903.49 1677.79 1892.84 1632.89 1892.84 1632.89 1937.19 1634.22 1937.19 1677.79 1937.19"/>
      <path class="st1" d="M1699.68,2069.71c-14.22,0-22.64-5.61-22.64-24.51v-63.67h-44.16v67.41c0,40.04,17.96,57.81,56.5,57.81,11.6,0,23.76-2.06,30.12-4.68v-35.55c-4.3,1.49-11.04,3.18-19.83,3.18Z"/>
    </g>
  </g>
</svg>